<svg width="121" height="59" viewBox="0 0 121 59" fill="none" xmlns="http://www.w3.org/2000/svg">
<path d="M120.657 7.99864H112.473V0H106.492V7.99864H98.3086V13.8439H106.492V21.8425H112.473V13.8439H120.657V7.99864Z" fill="#F7A941"/>
<path d="M31.8728 24.7832H24.2578V48.3986H31.8728V24.7832Z" fill="white"/>
<path d="M31.8728 15.5957H24.2578V22.1199H31.8728V15.5957Z" fill="white"/>
<path d="M104.543 15.7109H100.098V19.9751H104.543V15.7109Z" fill="white"/>
<path fill-rule="evenodd" clip-rule="evenodd" d="M7.61504 15.5957H0V48.3988H21.0597V41.7828H7.61504V15.5957Z" fill="white"/>
<path fill-rule="evenodd" clip-rule="evenodd" d="M76.2484 24.7831H70.043V15.5938H62.4279V24.7831H45.9746C37.2302 24.7831 35.1628 30.4807 35.1628 33.4214C35.1628 40.6803 44.8469 41.5069 44.9409 41.5069H45.3168L39.5828 48.2148H46.634C51.4282 48.4904 52.7455 49.8697 52.7455 51.431C52.7455 52.9924 50.5825 54.3717 47.2918 54.3717H46.634C42.9675 54.2798 40.9924 53.3614 40.9924 51.6147V51.431H34.0352V51.9821C34.0352 55.0146 36.668 58.7818 46.634 58.7818H46.9159C54.7189 58.7818 59.7028 56.3922 59.7028 50.8799C59.7028 49.686 59.3269 47.8474 57.7277 46.2861C56.9759 45.5513 55.0008 43.8965 48.6074 43.7128C48.4195 43.7128 48.2315 43.7128 48.0436 43.621C48.0436 43.621 49.0773 43.0699 49.5488 42.7944C51.6162 41.6004 53.9672 40.6803 55.8483 38.8434C57.1639 37.6495 58.1053 35.8109 58.1053 33.6985C58.1053 32.3192 57.7294 31.2171 56.8836 29.7476H62.4313V48.4001H70.0463V29.7476H73.431C75.7819 29.7476 77.3795 31.1269 77.3795 34.6186V48.4018H84.9945V33.0573C84.9945 26.6249 80.6701 24.788 76.2501 24.788L76.2484 24.7831ZM46.6324 38.0152C44.1874 38.0152 42.214 35.993 42.214 33.6969C42.214 31.4008 44.0951 29.4704 46.6324 29.4704C49.1696 29.4704 50.9567 31.3089 50.9567 33.5132C50.9567 35.9028 49.0773 38.0152 46.6324 38.0152Z" fill="white"/>
<path fill-rule="evenodd" clip-rule="evenodd" d="M98.1545 15.8711H90.5394V21.8426H86.1211V26.8055H90.5394V48.6742H98.1545V26.8055H102.479V21.8426H98.1545V15.8711Z" fill="white"/>
</svg>
